<?xml version="1.0" encoding="UTF-8" standalone="no"?>
<svg width="44px" height="44px" viewBox="0 0 44 44" version="1.1" xmlns="http://www.w3.org/2000/svg" xmlns:xlink="http://www.w3.org/1999/xlink">
    <!-- Generator: Sketch 3.8.3 (29802) - http://www.bohemiancoding.com/sketch -->
    <title>1</title>
    <desc>Created with Sketch.</desc>
    <defs></defs>
    <g id="Page-1" stroke="none" stroke-width="1" fill="none" fill-rule="evenodd">
        <g id="acca面授课程" transform="translate(-19.000000, -529.000000)">
            <g id="第二栏" transform="translate(0.000000, 417.000000)">
                <g id="1" transform="translate(19.000000, 112.000000)">
                    <path d="M43.7421395,16.0630698 C43.4771163,15.3570233 42.6895504,15.0012713 41.9848682,15.2649302 L32.4556279,18.8384806 L27.4055194,1.16037209 C27.2370233,0.574387597 26.7015194,0.170542636 26.0926822,0.170542636 L17.9069767,0.170542636 C17.2981395,0.170542636 16.7626357,0.574387597 16.5944806,1.16037209 L11.5436899,18.8384806 L2.01444961,15.2649302 C1.3107907,15.0012713 0.52220155,15.3570233 0.257178295,16.0630698 C-0.00648062016,16.7691163 0.350294574,17.5553178 1.05531783,17.8203411 L11.4314729,21.7114419 L20.7499225,43.0115349 C20.9671938,43.5084961 21.4573333,43.8291163 21.9996589,43.8291163 C22.5419845,43.8291163 23.0317829,43.5084961 23.2493953,43.0115349 L32.5675039,21.7114419 L42.944,17.8203411 C43.6490233,17.5553178 44.0061395,16.7691163 43.7421395,16.0630698 L43.7421395,16.0630698 Z M18.9353488,2.89922481 L25.0636279,2.89922481 L29.7409302,19.2713178 L14.2583876,19.2713178 L18.9353488,2.89922481 L18.9353488,2.89922481 Z M21.9996589,39.0597209 L14.536031,22 L29.4636279,22 L21.9996589,39.0597209 L21.9996589,39.0597209 Z" id="Fill-1" fill="#81D4FA"></path>
                    <path d="M32.9143876,2.89922481 L41.100093,16.5426357 L21.9996589,41.1007752 L2.89922481,16.5426357 L11.0852713,2.89922481 L32.9143876,2.89922481 M32.9143876,0.170542636 L11.0852713,0.170542636 C10.1271628,0.170542636 9.23863566,0.67296124 8.74576744,1.49497674 L0.55972093,15.1383876 C-0.0197829457,16.1057054 0.0535503876,17.3288372 0.744930233,18.2173643 L19.8453643,42.7755039 C20.3624496,43.4402791 21.1578605,43.8294574 21.9996589,43.8294574 C22.8414574,43.8294574 23.6372093,43.4402791 24.1536124,42.7755039 L43.2547287,18.2173643 C43.9457674,17.3288372 44.0194419,16.1057054 43.4395969,15.1383876 L35.2535504,1.49497674 C34.7610233,0.67296124 33.8728372,0.170542636 32.9143876,0.170542636" id="Fill-2" fill="#03A9F4"></path>
                </g>
            </g>
        </g>
    </g>
</svg>