<?xml version="1.0" encoding="UTF-8" standalone="no"?>
<svg width="44px" height="43px" viewBox="0 0 44 43" version="1.1" xmlns="http://www.w3.org/2000/svg" xmlns:xlink="http://www.w3.org/1999/xlink">
    <!-- Generator: Sketch 3.8.3 (29802) - http://www.bohemiancoding.com/sketch -->
    <title>2</title>
    <desc>Created with Sketch.</desc>
    <defs></defs>
    <g id="Page-1" stroke="none" stroke-width="1" fill="none" fill-rule="evenodd">
        <g id="acca面授课程" transform="translate(-339.000000, -529.000000)">
            <g id="第二栏" transform="translate(0.000000, 417.000000)">
                <g id="2" transform="translate(339.000000, 112.000000)">
                    <polygon id="Fill-1" fill="#81D4FA" points="16.4893411 18.8333333 19.1611757 18.8333333 19.1611757 21.5 16.4893411 21.5"></polygon>
                    <polygon id="Fill-2" fill="#81D4FA" points="13.8175065 16.1666667 16.4893411 16.1666667 16.4893411 18.8333333 13.8175065 18.8333333"></polygon>
                    <polygon id="Fill-3" fill="#81D4FA" points="16.4893411 13.5 19.1611757 13.5 19.1611757 16.1666667 16.4893411 16.1666667"></polygon>
                    <polygon id="Fill-4" fill="#81D4FA" points="13.8175065 10.8333333 16.4893411 10.8333333 16.4893411 13.5 13.8175065 13.5"></polygon>
                    <polygon id="Fill-5" fill="#81D4FA" points="16.4893411 8.16666667 19.1611757 8.16666667 19.1611757 10.8333333 16.4893411 10.8333333"></polygon>
                    <polygon id="Fill-6" fill="#81D4FA" points="13.8175065 5.5 16.4893411 5.5 16.4893411 8.16666667 13.8175065 8.16666667"></polygon>
                    <polygon id="Fill-7" fill="#81D4FA" points="19.1611757 5.5 21.8330103 5.5 21.8330103 8.16666667 19.1611757 8.16666667"></polygon>
                    <polygon id="Fill-8" fill="#81D4FA" points="19.1611757 10.8333333 21.8330103 10.8333333 21.8330103 13.5 19.1611757 13.5"></polygon>
                    <polygon id="Fill-9" fill="#81D4FA" points="19.1611757 16.1666667 21.8330103 16.1666667 21.8330103 18.8333333 19.1611757 18.8333333"></polygon>
                    <polygon id="Fill-10" fill="#81D4FA" points="21.8330103 18.8333333 24.504845 18.8333333 24.504845 21.5 21.8330103 21.5"></polygon>
                    <polygon id="Fill-11" fill="#81D4FA" points="24.504845 21.5 27.1766796 21.5 27.1766796 24.1666667 24.504845 24.1666667"></polygon>
                    <polygon id="Fill-12" fill="#81D4FA" points="24.504845 16.1666667 27.1766796 16.1666667 27.1766796 18.8333333 24.504845 18.8333333"></polygon>
                    <polygon id="Fill-13" fill="#81D4FA" points="21.8330103 13.5 24.504845 13.5 24.504845 16.1666667 21.8330103 16.1666667"></polygon>
                    <polygon id="Fill-14" fill="#81D4FA" points="21.8330103 8.16666667 24.504845 8.16666667 24.504845 10.8333333 21.8330103 10.8333333"></polygon>
                    <polyline id="Fill-15" fill="#81D4FA" points="24.504845 5.5 26.7592054 6.25 27.1766796 8.16666667 24.504845 8.16666667 24.504845 5.5"></polyline>
                    <polygon id="Fill-16" fill="#81D4FA" points="24.504845 10.8333333 27.1766796 10.8333333 27.1766796 13.5 24.504845 13.5"></polygon>
                    <polygon id="Fill-17" fill="#81D4FA" points="27.1766796 8.16666667 29.8485142 8.16666667 29.8485142 10.8333333 27.1766796 10.8333333"></polygon>
                    <polygon id="Fill-18" fill="#81D4FA" points="27.1766796 13.5 29.8485142 13.5 29.8485142 16.1666667 27.1766796 16.1666667"></polygon>
                    <polygon id="Fill-19" fill="#81D4FA" points="27.1766796 18.8333333 29.8485142 18.8333333 29.8485142 21.5 27.1766796 21.5"></polygon>
                    <polyline id="Fill-20" fill="#81D4FA" points="27.1766796 24.1666667 29.8485142 24.1666667 29.8485142 26.8333333 27.8446382 25.5 27.1766796 24.1666667"></polyline>
                    <polygon id="Fill-21" fill="#81D4FA" points="29.8485142 21.5 32.5203488 21.5 32.5203488 24.1666667 29.8485142 24.1666667"></polygon>
                    <polygon id="Fill-22" fill="#81D4FA" points="29.8485142 16.1666667 32.5203488 16.1666667 32.5203488 18.8333333 29.8485142 18.8333333"></polygon>
                    <polygon id="Fill-23" fill="#81D4FA" points="29.8485142 10.8333333 32.5203488 10.8333333 32.5203488 13.5 29.8485142 13.5"></polygon>
                    <polyline id="Fill-24" fill="#81D4FA" points="32.5203488 8.16666667 35.1921835 9.5 35.1921835 10.8333333 32.5203488 10.8333333 32.5203488 8.16666667"></polyline>
                    <polygon id="Fill-25" fill="#81D4FA" points="32.5203488 13.5 35.1921835 13.5 35.1921835 16.1666667 32.5203488 16.1666667"></polygon>
                    <polygon id="Fill-26" fill="#81D4FA" points="32.5203488 18.8333333 35.1921835 18.8333333 35.1921835 21.5 32.5203488 21.5"></polygon>
                    <polygon id="Fill-27" fill="#81D4FA" points="32.5203488 24.1666667 35.1921835 24.1666667 35.1921835 26.8333333 32.5203488 26.8333333"></polygon>
                    <polygon id="Fill-28" fill="#81D4FA" points="35.1921835 26.8333333 37.8640181 26.8333333 37.8640181 28.5 35.1921835 28.5"></polygon>
                    <polygon id="Fill-29" fill="#81D4FA" points="35.1921835 21.5 37.8640181 21.5 37.8640181 24.1666667 35.1921835 24.1666667"></polygon>
                    <polygon id="Fill-30" fill="#81D4FA" points="35.1921835 16.1666667 37.8640181 16.1666667 37.8640181 18.8333333 35.1921835 18.8333333"></polygon>
                    <polygon id="Fill-31" fill="#81D4FA" points="35.1921835 10.8333333 37.8640181 10.8333333 37.8640181 13.5 35.1921835 13.5"></polygon>
                    <polyline id="Fill-32" fill="#81D4FA" points="37.8640181 9.5 40.5358527 8.16666667 40.5358527 10.8333333 37.8640181 10.8333333 37.8640181 9.5"></polyline>
                    <polygon id="Fill-33" fill="#81D4FA" points="37.8640181 13.5 40.5358527 13.5 40.5358527 16.1666667 37.8640181 16.1666667"></polygon>
                    <polygon id="Fill-34" fill="#81D4FA" points="37.8640181 18.8333333 40.5358527 18.8333333 40.5358527 21.5 37.8640181 21.5"></polygon>
                    <polygon id="Fill-35" fill="#81D4FA" points="37.8640181 24.1666667 40.5358527 24.1666667 40.5358527 26.8333333 37.8640181 26.8333333"></polygon>
                    <path d="M4.46608527,0.166666667 C2.2521363,0.166666667 0.458333333,1.957 0.458333333,4.16666667 L0.458333333,38.8333333 C0.458333333,41.043 2.2521363,42.8333333 4.46608527,42.8333333 C6.68003424,42.8333333 8.47383721,41.043 8.47383721,38.8333333 L8.47383721,4.16666667 C8.47383721,1.957 6.68003424,0.166666667 4.46608527,0.166666667 L4.46608527,0.166666667 Z M5.80200258,38.8333333 C5.80200258,39.569 5.20317765,40.1666667 4.46608527,40.1666667 C3.72899289,40.1666667 3.13016796,39.569 3.13016796,38.8333333 L3.13016796,4.16666667 C3.13016796,3.431 3.72899289,2.83333333 4.46608527,2.83333333 C5.20317765,2.83333333 5.80200258,3.431 5.80200258,4.16666667 L5.80200258,38.8333333 L5.80200258,38.8333333 Z" id="Fill-36" fill="#03A9F4"></path>
                    <path d="M17.9217784,5.08733333 C20.3758585,5.08733333 23.098458,6.44666667 25.9817016,7.88566667 C29.2927726,9.538 32.7160607,11.2463333 36.4315807,11.2463333 C37.8563366,11.2463333 39.2259858,10.986 40.5358527,10.469 L40.5358527,25.66 C39.2259858,26.738 37.9017578,27.246 36.4315807,27.246 C33.9775006,27.246 31.2535652,25.8866667 28.3703217,24.448 C25.0605866,22.7956667 21.6372984,21.0883333 17.9217784,21.087 L17.9204425,21.087 C16.4970226,21.087 15.1260375,21.3473333 13.8175065,21.863 L13.8175065,6.67333333 C15.1273734,5.595 16.4516014,5.08733333 17.9217784,5.08733333 M17.9217784,2.42066667 C15.6620743,2.42066667 13.4040401,3.246 11.1456718,5.5 L11.1456718,26.8333333 C13.405376,24.578 15.6620743,23.754 17.9217784,23.754 C24.0913786,23.7553333 30.2619806,29.9126667 36.4315807,29.9126667 C38.6912849,29.9126667 40.9493191,29.0873333 43.2076873,26.8336667 L43.2076873,5.50033333 C40.9479832,7.75566667 38.6912849,8.57966667 36.4315807,8.57966667 C30.2619806,8.57933333 24.0913786,2.42066667 17.9217784,2.42066667" id="Fill-37" fill="#81D4FA"></path>
                </g>
            </g>
        </g>
    </g>
</svg>