<?xml version="1.0" encoding="UTF-8" standalone="no"?>
<svg width="43px" height="46px" viewBox="0 0 43 46" version="1.1" xmlns="http://www.w3.org/2000/svg" xmlns:xlink="http://www.w3.org/1999/xlink">
    <!-- Generator: Sketch 3.8.3 (29802) - http://www.bohemiancoding.com/sketch -->
    <title>4</title>
    <desc>Created with Sketch.</desc>
    <defs></defs>
    <g id="Page-1" stroke="none" stroke-width="1" fill="none" fill-rule="evenodd">
        <g id="acca面授课程" transform="translate(-337.000000, -615.000000)">
            <g id="第二栏" transform="translate(0.000000, 417.000000)">
                <g id="4" transform="translate(337.000000, 198.000000)">
                    <path d="M6.05371901,17.3236434 L8.83057851,17.3236434 L8.83057851,14.5329457 L6.05371901,14.5329457 L6.05371901,17.3236434 Z M17.161157,14.5329457 L19.9380165,14.5329457 L19.9380165,11.7422481 L17.161157,11.7422481 L17.161157,14.5329457 Z M22.714876,14.5329457 L25.4917355,14.5329457 L25.4917355,11.7422481 L22.714876,11.7422481 L22.714876,14.5329457 Z M28.268595,14.5329457 L31.0454545,14.5329457 L31.0454545,11.7422481 L28.268595,11.7422481 L28.268595,14.5329457 Z M17.161157,8.95155039 L19.9380165,8.95155039 L19.9380165,6.16085271 L17.161157,6.16085271 L17.161157,8.95155039 Z M22.714876,8.95155039 L25.4917355,8.95155039 L25.4917355,6.16085271 L22.714876,6.16085271 L22.714876,8.95155039 Z M28.268595,8.95155039 L31.0454545,8.95155039 L31.0454545,6.16085271 L28.268595,6.16085271 L28.268595,8.95155039 Z M17.161157,25.6957364 L19.9380165,25.6957364 L19.9380165,22.9050388 L17.161157,22.9050388 L17.161157,25.6957364 Z M22.714876,25.6957364 L25.4917355,25.6957364 L25.4917355,22.9050388 L22.714876,22.9050388 L22.714876,25.6957364 Z M28.268595,25.6957364 L31.0454545,25.6957364 L31.0454545,22.9050388 L28.268595,22.9050388 L28.268595,25.6957364 Z M17.161157,31.2771318 L19.9380165,31.2771318 L19.9380165,28.4864341 L17.161157,28.4864341 L17.161157,31.2771318 Z M28.268595,31.2771318 L31.0454545,31.2771318 L31.0454545,28.4864341 L28.268595,28.4864341 L28.268595,31.2771318 Z M17.161157,36.8585271 L19.9380165,36.8585271 L19.9380165,34.0678295 L17.161157,34.0678295 L17.161157,36.8585271 Z M28.268595,36.8585271 L31.0454545,36.8585271 L31.0454545,34.0678295 L28.268595,34.0678295 L28.268595,36.8585271 Z M36.5991736,34.0678295 L39.3760331,34.0678295 L39.3760331,31.2771318 L36.5991736,31.2771318 L36.5991736,34.0678295 Z M36.5991736,28.4864341 L39.3760331,28.4864341 L39.3760331,25.6957364 L36.5991736,25.6957364 L36.5991736,28.4864341 Z M36.5991736,39.6492248 L39.3760331,39.6492248 L39.3760331,36.8585271 L36.5991736,36.8585271 L36.5991736,39.6492248 Z M17.161157,20.1143411 L19.9380165,20.1143411 L19.9380165,17.3236434 L17.161157,17.3236434 L17.161157,20.1143411 Z M22.714876,20.1143411 L25.4917355,20.1143411 L25.4917355,17.3236434 L22.714876,17.3236434 L22.714876,20.1143411 Z M28.268595,20.1143411 L31.0454545,20.1143411 L31.0454545,17.3236434 L28.268595,17.3236434 L28.268595,20.1143411 Z M6.05371901,22.9050388 L8.83057851,22.9050388 L8.83057851,20.1143411 L6.05371901,20.1143411 L6.05371901,22.9050388 Z M6.05371901,28.4864341 L8.83057851,28.4864341 L8.83057851,25.6957364 L6.05371901,25.6957364 L6.05371901,28.4864341 Z M6.05371901,34.0678295 L8.83057851,34.0678295 L8.83057851,31.2771318 L6.05371901,31.2771318 L6.05371901,34.0678295 Z M6.05371901,39.6492248 L8.83057851,39.6492248 L8.83057851,36.8585271 L6.05371901,36.8585271 L6.05371901,39.6492248 Z M22.714876,31.2771318 L25.4917355,31.2771318 L25.4917355,28.4864341 L22.714876,28.4864341 L22.714876,31.2771318 Z" id="Fill-1" fill="#81D4FA"></path>
                    <path d="M42.1528926,42.4399225 C42.1528926,43.9824806 40.9109421,45.2306202 39.3760331,45.2306202 L3.2768595,45.2306202 C1.74195041,45.2306202 0.5,43.9824806 0.5,42.4399225 L0.5,11.7422481 C0.5,10.1996899 1.74195041,8.95155039 3.2768595,8.95155039 L11.607438,8.95155039 L11.607438,3.37015504 C11.607438,1.8275969 12.8493884,0.579457364 14.3842975,0.579457364 L33.822314,0.579457364 C35.3572231,0.579457364 36.5991736,1.8275969 36.5991736,3.37015504 L36.5991736,20.1143411 L39.3760331,20.1143411 C40.9109421,20.1143411 42.1528926,21.3624806 42.1528926,22.9050388 L42.1528926,42.4399225 L42.1528926,42.4399225 Z M3.2768595,42.4399225 L11.607438,42.4399225 L11.607438,11.7422481 L3.2768595,11.7422481 L3.2768595,42.4399225 Z M33.822314,3.37015504 L14.3842975,3.37015504 L14.3842975,42.4399225 L22.714876,42.4399225 L22.714876,34.0678295 L25.4917355,34.0678295 L25.4917355,42.4399225 L33.822314,42.4399225 L33.822314,3.37015504 L33.822314,3.37015504 Z M36.5991736,42.4399225 L39.3760331,42.4399225 L39.3760331,22.9050388 L36.5991736,22.9050388 L36.5991736,42.4399225 Z" id="Fill-2" fill="#03A9F4"></path>
                </g>
            </g>
        </g>
    </g>
</svg>