<?xml version="1.0" encoding="UTF-8" standalone="no"?>
<svg width="45px" height="46px" viewBox="0 0 45 46" version="1.1" xmlns="http://www.w3.org/2000/svg" xmlns:xlink="http://www.w3.org/1999/xlink">
    <!-- Generator: Sketch 3.8.3 (29802) - http://www.bohemiancoding.com/sketch -->
    <title>5</title>
    <desc>Created with Sketch.</desc>
    <defs></defs>
    <g id="Page-1" stroke="none" stroke-width="1" fill="none" fill-rule="evenodd">
        <g id="acca面授课程" transform="translate(-21.000000, -695.000000)">
            <g id="第二栏" transform="translate(0.000000, 417.000000)">
                <g id="5" transform="translate(21.000000, 278.000000)">
                    <path d="M31.1673648,35.6466493 C30.1828177,34.6638373 28.5371629,33.8056121 25.9447882,32.5083836 C24.6354134,31.8535227 22.4601785,30.7662523 21.9316394,30.2675585 C24.1433134,27.5523323 25.423884,24.4845153 25.423884,21.8005225 C25.423884,19.9785724 25.423884,17.7106783 24.404286,15.6895283 C23.4853291,13.8686193 21.4312105,11.698243 16.8634948,11.698243 C12.2971673,11.698243 10.2444368,13.8686193 9.32513283,15.6891813 C8.3041467,17.7103313 8.3041467,19.9782254 8.3041467,21.8001755 C8.3041467,24.4859035 9.58541142,27.5523323 11.7953501,30.2672114 C11.2678522,30.7669463 9.09192322,31.8545638 7.78497767,32.5080366 C5.19260295,33.805265 3.54521301,34.6634903 2.56170699,35.6463022 C0.383001696,37.8260487 0.218852667,41.4834834 0.207400409,42.1938704 C0.195254075,42.9386142 0.483295711,43.6552479 1.00454696,44.1834399 C1.52614525,44.7144082 2.23896154,45.0139021 2.9833583,45.0139021 L30.7457135,45.0139021 C31.4901103,45.0139021 32.2004973,44.7144082 32.7234837,44.184134 C33.2457761,43.6555949 33.5345118,42.9386142 33.5209773,42.1942174 C33.5102191,41.4838304 33.3460701,37.8263957 31.1673648,35.6466493 L31.1673648,35.6466493 Z M2.98301126,42.2403735 C3.00209836,41.0743254 3.3484424,38.7876913 4.52594273,37.6094969 C5.20648447,36.9289551 6.81986467,36.0953696 9.02459782,34.9917884 C11.6346715,33.6890073 12.9999194,32.9515513 13.7047539,32.284544 L15.5759834,30.5143026 L13.9504568,28.5157101 C12.1267715,26.2762731 11.0801046,23.8279192 11.0801046,21.7998285 C11.0801046,20.1920009 11.0801046,18.3700508 11.8040261,16.9399067 C12.6417761,15.2810645 14.2971479,14.4745479 16.8634948,14.4745479 C19.4312298,14.4745479 21.0879898,15.2810645 21.9260868,16.9392126 C22.6486202,18.3707448 22.6486202,20.1926949 22.6486202,21.8005225 C22.6486202,23.8286133 21.6033414,26.275579 19.7782679,28.5164042 L18.1513532,30.5163848 L20.025012,32.2866262 C20.7270701,32.9508572 22.0926651,33.686925 24.7023918,34.9910943 C26.9074719,36.0960636 28.5232814,36.9296492 29.2038232,37.6101909 C30.3830587,38.7908146 30.7280146,41.0750195 30.7453665,42.2382913 L2.98301126,42.2403735 L2.98301126,42.2403735 Z" id="Fill-1" fill="#03A9F4"></path>
                    <path d="M42.2725845,24.5414296 C41.2897726,23.5586176 39.6441178,22.7003924 37.0500079,21.4031639 C35.7416742,20.748303 33.5657452,19.6610325 33.0379003,19.1623388 C35.247839,16.4471126 36.5304919,13.3792956 36.5304919,10.6953028 C36.5304919,8.87335271 36.5304919,6.60545862 35.5095057,4.58430863 C34.5905488,2.76339963 32.5364302,0.593023256 27.9701027,0.593023256 C23.4041222,0.593023256 21.3500036,2.76339963 20.4306996,4.58396159 C19.4801622,6.46699041 19.4152661,8.55858913 19.4111016,10.3100905 L22.1891417,10.3100905 C22.1946943,8.79978063 22.2432797,7.15412588 22.9088988,5.835034 C23.7456077,4.17584477 25.4027147,3.36932818 27.9701027,3.36932818 C30.5374906,3.36932818 32.1935565,4.17584477 33.0313065,5.83399289 C33.7541869,7.26552511 33.7541869,9.08747522 33.7541869,10.6953028 C33.7541869,12.7233936 32.7071729,15.1703593 30.8852228,17.4111844 L29.25692,19.4108181 L31.1319669,21.1814065 C31.8329839,21.8456375 33.1978848,22.5817053 35.8069174,23.8858746 C38.0137328,24.9908439 39.6291952,25.8244295 40.3080018,26.5049712 C41.4889725,27.6855949 41.8335813,29.9697998 41.8509332,31.1330715 L29.3586022,31.1330715 L33.5223655,33.9093765 L41.8509332,33.9093765 C42.59533,33.9093765 43.3067581,33.6098826 43.8304386,33.0796083 C44.3509958,32.5510693 44.6397315,31.8340885 44.6275852,31.0896918 C44.616827,30.3786107 44.4512898,26.721176 42.2725845,24.5414296" id="Fill-2" fill="#81D4FA"></path>
                </g>
            </g>
        </g>
    </g>
</svg>