<?xml version="1.0" encoding="UTF-8" standalone="no"?>
<svg width="44px" height="43px" viewBox="0 0 44 43" version="1.1" xmlns="http://www.w3.org/2000/svg" xmlns:xlink="http://www.w3.org/1999/xlink">
    <!-- Generator: Sketch 3.8.3 (29802) - http://www.bohemiancoding.com/sketch -->
    <title>6</title>
    <desc>Created with Sketch.</desc>
    <defs></defs>
    <g id="Page-1" stroke="none" stroke-width="1" fill="none" fill-rule="evenodd">
        <g id="acca面授课程" transform="translate(-337.000000, -696.000000)">
            <g id="第二栏" transform="translate(0.000000, 417.000000)">
                <g id="6" transform="translate(337.000000, 279.000000)">
                    <g id="Page-1">
                        <path d="M28.3234042,23.9493333 C31.1534042,20.4713333 32.7960709,16.5443333 32.7960709,13.1043333 C32.7960709,10.771 32.7960709,7.86733333 31.4894042,5.27766667 C30.3124042,2.94533333 27.6814042,0.166666667 21.8337376,0.166666667 C15.9837376,0.166666667 13.3544042,2.94533333 12.1784042,5.27733333 C10.8707376,7.86733333 10.8707376,10.7706667 10.8707376,13.104 C10.8707376,16.544 12.5117376,20.4713333 15.3430709,23.9493333 C14.6657376,24.5886667 11.8787376,25.9816667 10.2040709,26.8173333 C6.88340425,28.4783333 4.77607091,29.5773333 3.51607091,30.8386667 C0.725737579,33.629 0.514737579,38.3123333 0.500404245,39.2236667 C0.486070912,40.1743333 0.853404245,41.093 1.52207091,41.7726667 C2.19007091,42.45 3.10240425,42.833 4.05507091,42.833 L19.1564042,42.833 L19.1564042,40.1663333 L4.05507091,40.1663333 C3.81940425,40.1663333 3.58773758,40.07 3.42207091,39.9006667 C3.25607091,39.7323333 3.16373758,39.501 3.16607091,39.2653333 C3.17373758,38.8173333 3.29707091,34.8286667 5.40107091,32.7236667 C6.37273758,31.7523333 8.40673758,30.7006667 11.3970709,29.2023333 C14.5890709,27.609 16.3590709,26.657 17.1744042,25.8846667 L18.9740709,24.1843333 L17.4114042,22.265 C14.9500709,19.2416667 13.5367376,15.9016667 13.5367376,13.1036667 C13.5367376,10.9473333 13.5367376,8.502 14.5577376,6.47866667 C15.7804042,4.06 18.2264042,2.83333333 21.8337376,2.83333333 C25.4384042,2.83333333 27.8870709,4.06 29.1087376,6.47933333 C30.1300709,8.50266667 30.1300709,10.948 30.1300709,13.1043333 C30.1300709,15.9013333 28.7164042,19.241 26.2544042,22.2656667 L24.6914042,24.1863333 L26.4914042,25.888 C26.9784042,26.3476667 27.8180709,26.8776667 29.0907376,27.5676667 L31.0624042,25.5963333 C29.8557376,24.9636667 28.7204042,24.3256667 28.3234042,23.9493333 L28.3234042,23.9493333 Z M40.9080709,31.7526667 L38.9920709,33.668 C40.1150709,35.44 40.4780709,37.9023333 40.4990709,39.2643333 C40.5030709,39.5013333 40.4104042,39.733 40.2450709,39.901 C40.0760709,40.073 39.8504042,40.1666667 39.6110709,40.1666667 L32.4924042,40.1666667 L29.8254042,42.8333333 L39.6107376,42.8333333 C40.5634042,42.8333333 41.4757376,42.4506667 42.1437376,41.7733333 C42.8120709,41.0936667 43.1804042,40.1743333 43.1660709,39.2226667 C43.1530709,38.405 42.9644042,34.5533333 40.9080709,31.7526667 L40.9080709,31.7526667 Z" id="Fill-1" fill="#81D4FA"></path>
                        <path d="M42.3794042,24.1666667 L40.4937376,22.2813333 C39.9727376,21.7603333 39.2907376,21.5 38.6080709,21.5 C37.9254042,21.5 37.2434042,21.7603333 36.7224042,22.2813333 L25.2717376,33.7293333 C24.7510709,34.2503333 23.1574042,36.2643333 23.1574042,36.9466667 L21.8234042,42.8333333 L27.7100709,41.5 C27.7100709,41.5 30.4087376,39.9063333 30.9294042,39.3853333 L42.3794042,27.9373333 C43.4217376,26.896 43.4217376,25.207 42.3794042,24.1666667 L42.3794042,24.1666667 Z M29.9890709,38.44 C29.8384042,38.5833333 29.3157376,38.9363333 28.6774042,39.3423333 L25.2224042,35.888 C25.5764042,35.4023333 25.9714042,34.914 26.2154042,34.672 L34.8364042,26.052 L38.6077376,29.8236667 L29.9890709,38.44 L29.9890709,38.44 Z" id="Fill-2" fill="#03A9F4"></path>
                    </g>
                </g>
            </g>
        </g>
    </g>
</svg>