<?xml version="1.0" encoding="UTF-8" standalone="no"?>
<svg width="19px" height="27px" viewBox="0 0 19 27" version="1.1" xmlns="http://www.w3.org/2000/svg" xmlns:xlink="http://www.w3.org/1999/xlink">
    <!-- Generator: Sketch 3.8.3 (29802) - http://www.bohemiancoding.com/sketch -->
    <title>Imported Layers</title>
    <desc>Created with Sketch.</desc>
    <defs></defs>
    <g id="Page-1" stroke="none" stroke-width="1" fill="none" fill-rule="evenodd">
        <g id="acca面授课程" transform="translate(-60.000000, -3690.000000)" stroke="#333333" stroke-width="2">
            <g id="第六栏" transform="translate(0.000000, 3581.000000)">
                <g id="成都分部-+-Imported-Layers-+-Imported-Layers" transform="translate(55.000000, 109.000000)">
                    <path d="M14.4,6.90909091 C15.7252,6.90909091 16.8,7.96760606 16.8,9.27272727 C16.8,10.5778485 15.7252,11.6363636 14.4,11.6363636 C13.0748,11.6363636 12,10.5778485 12,9.27272727 C12,7.96760606 13.0748,6.90909091 14.4,6.90909091 L14.4,6.90909091 Z M22.8,9.56227273 C22.7792,4.8330303 19.04,1 14.4,1 C9.7604,1 6,4.8330303 6,9.56227273 C6,15.6825152 14.386,25.4242424 14.386,25.4242424 C14.386,25.4242424 22.8272,15.6825152 22.8,9.56227273 L22.8,9.56227273 Z" id="Imported-Layers"></path>
                </g>
            </g>
        </g>
    </g>
</svg>