<?xml version="1.0" encoding="UTF-8" standalone="no"?>
<svg width="20px" height="27px" viewBox="0 0 20 27" version="1.1" xmlns="http://www.w3.org/2000/svg" xmlns:xlink="http://www.w3.org/1999/xlink">
    <!-- Generator: Sketch 3.8.3 (29802) - http://www.bohemiancoding.com/sketch -->
    <title>Imported Layers1</title>
    <desc>Created with Sketch.</desc>
    <defs></defs>
    <g id="Page-1" stroke="none" stroke-width="1" fill="none" fill-rule="evenodd">
        <g id="acca面授课程" transform="translate(-59.000000, -3733.000000)" fill="#000000">
            <g id="第六栏" transform="translate(0.000000, 3581.000000)">
                <g id="成都分部-+-Imported-Layers-+-Imported-Layers" transform="translate(55.000000, 109.000000)">
                    <path d="M25.45775,46.9800418 L24.8032046,46.3254963 C23.9973864,45.52186 22.8315682,45.0964054 21.4352046,45.0964054 C17.9842955,45.0964054 13.3653864,47.5662236 9.37702274,51.5480418 C3.58647729,57.3269509 1.28829547,64.0913145 4.14647729,66.9436781 L4.7995682,67.5960418 C5.2875682,68.08186 5.93629547,68.3502236 6.62720456,68.3502236 C7.31738638,68.3502236 7.96611365,68.08186 8.45484093,67.5945872 L11.0708409,64.9836781 C12.0773864,63.9800418 12.0795682,62.3436781 11.0708409,61.33786 L10.41775,60.6840418 C9.72102274,59.9880418 10.0402955,58.180769 13.03375,55.19386 C15.5813864,52.6505872 17.0570227,52.2709509 17.7093864,52.2709509 C18.0555682,52.2709509 18.3246591,52.3734963 18.5348409,52.5836781 L19.1879318,53.2345872 C20.1632046,54.2091327 21.8679318,54.2113145 22.8424773,53.2345872 L25.4570227,50.6236781 C25.9464773,50.1371327 26.2148409,49.48986 26.2148409,48.8004054 C26.2148409,48.1116781 25.9464773,47.4665872 25.45775,46.9800418 L25.45775,46.9800418 Z M24.4192046,49.588769 L21.8024773,52.1996781 C21.3806591,52.6200418 20.6468409,52.6214963 20.22575,52.1996781 L19.5726591,51.548769 C19.0868409,51.0636781 18.4432046,50.8054963 17.7086591,50.8054963 C16.1464773,50.8054963 14.2235682,51.9334963 11.9944773,54.1582236 C7.39447729,58.7480418 8.63302274,60.9771327 9.37775002,61.7211327 L10.0315682,62.3734963 C10.4664773,62.8076781 10.4664773,63.51386 10.0315682,63.9473145 L7.41629547,66.5574963 C6.99302274,66.9785872 6.25847729,66.9785872 5.83811365,66.5574963 L5.18575002,65.90586 C2.98502274,63.7094963 5.38065911,57.60986 10.4162955,52.5844054 C14.0824773,48.924769 18.4068409,46.5611327 21.4352046,46.5611327 C22.4490227,46.5611327 23.2322955,46.8302236 23.7646591,47.3640418 L24.41775,48.0149509 C24.6286591,48.22586 24.7442955,48.50586 24.7442955,48.8025872 C24.7464773,49.1000418 24.6301137,49.37786 24.4192046,49.588769 L24.4192046,49.588769 Z" id="Imported-Layers1" transform="translate(14.567529, 56.723315) rotate(-14.000000) translate(-14.567529, -56.723315) "></path>
                </g>
            </g>
        </g>
    </g>
</svg>